<svg xmlns="http://www.w3.org/2000/svg" width="800" height="450" viewBox="0 0 800 450" role="img" aria-label="Build overview: Manufacturing concept artwork"><defs><linearGradient id="bg"><stop stop-color="#13101f"/><stop offset="1" stop-color="#32224c"/></linearGradient><radialGradient id="glow"><stop stop-color="#b7a0ff" stop-opacity=".15"/><stop offset="1" stop-color="#b7a0ff" stop-opacity="0"/></radialGradient></defs><rect width="800" height="450" fill="url(#bg)"/><ellipse cx="580" cy="180" rx="340" ry="290" fill="url(#glow)"/><circle cx="26" cy="360" r="1.4" fill="#fff" opacity="0.12"/><circle cx="163" cy="421" r="0.7" fill="#fff" opacity="0.22"/><circle cx="300" cy="32" r="0.7" fill="#fff" opacity="0.32"/><circle cx="437" cy="93" r="0.7" fill="#fff" opacity="0.42000000000000004"/><circle cx="574" cy="154" r="1.4" fill="#fff" opacity="0.12"/><circle cx="711" cy="215" r="0.7" fill="#fff" opacity="0.22"/><circle cx="48" cy="276" r="0.7" fill="#fff" opacity="0.32"/><circle cx="185" cy="337" r="0.7" fill="#fff" opacity="0.42000000000000004"/><circle cx="322" cy="398" r="1.4" fill="#fff" opacity="0.12"/><circle cx="459" cy="9" r="0.7" fill="#fff" opacity="0.22"/><circle cx="596" cy="70" r="0.7" fill="#fff" opacity="0.32"/><circle cx="733" cy="131" r="0.7" fill="#fff" opacity="0.42000000000000004"/><circle cx="70" cy="192" r="1.4" fill="#fff" opacity="0.12"/><circle cx="207" cy="253" r="0.7" fill="#fff" opacity="0.22"/><circle cx="344" cy="314" r="0.7" fill="#fff" opacity="0.32"/><circle cx="481" cy="375" r="0.7" fill="#fff" opacity="0.42000000000000004"/><circle cx="618" cy="436" r="1.4" fill="#fff" opacity="0.12"/><circle cx="755" cy="47" r="0.7" fill="#fff" opacity="0.22"/><circle cx="92" cy="108" r="0.7" fill="#fff" opacity="0.32"/><circle cx="229" cy="169" r="0.7" fill="#fff" opacity="0.42000000000000004"/><circle cx="366" cy="230" r="1.4" fill="#fff" opacity="0.12"/><circle cx="503" cy="291" r="0.7" fill="#fff" opacity="0.22"/><circle cx="640" cy="352" r="0.7" fill="#fff" opacity="0.32"/><circle cx="777" cy="413" r="0.7" fill="#fff" opacity="0.42000000000000004"/><circle cx="114" cy="24" r="1.4" fill="#fff" opacity="0.12"/><circle cx="251" cy="85" r="0.7" fill="#fff" opacity="0.22"/><circle cx="388" cy="146" r="0.7" fill="#fff" opacity="0.32"/><circle cx="525" cy="207" r="0.7" fill="#fff" opacity="0.42000000000000004"/><circle cx="662" cy="268" r="1.4" fill="#fff" opacity="0.12"/><circle cx="799" cy="329" r="0.7" fill="#fff" opacity="0.22"/><g stroke="#b7a0ff" stroke-width="2" fill="none"><path d="M375 100l35 -20 35 20v80l-35 20 -35 -20z"/><path opacity=".35" d="M375 100l35 20 35 -20m-35 20v80"/><path d="M467 124l35 -20 35 20v80l-35 20 -35 -20z"/><path opacity=".35" d="M467 124l35 20 35 -20m-35 20v80"/><path d="M559 148l35 -20 35 20v80l-35 20 -35 -20z"/><path opacity=".35" d="M559 148l35 20 35 -20m-35 20v80"/><path d="M651 172l35 -20 35 20v80l-35 20 -35 -20z"/><path opacity=".35" d="M651 172l35 20 35 -20m-35 20v80"/></g><path d="M44 53h22m-11 -11v22" stroke="#b7a0ff"/><text x="84" y="58" fill="#b7a0ff" font-family="Arial,sans-serif" font-size="17" letter-spacing="3">BUILD SYSTEMS</text><text x="44" y="350" fill="#f8f5ff" font-family="Arial,sans-serif" font-size="40" font-weight="600" letter-spacing="-1">Build overview</text><text x="46" y="393" fill="#bbb3ca" font-family="Arial,sans-serif" font-size="17">Builds  /  Operations</text></svg>